<?xml version="1.0" encoding="UTF-8"?>
<svg xmlns="http://www.w3.org/2000/svg" id="Ebene_1" viewBox="0 0 396.31 252.25">
  <defs>
    <style>.cls-1{fill:#fff;}#neck:target~path.cls-1:nth-of-type(5),#harami-sagari:target~path.cls-1:nth-of-type(6),#sankaku-bara:target~polygon.cls-1:nth-of-type(2),#kata:target~path.cls-1:nth-of-type(4),#rump-group:target~path.cls-1:nth-of-type(7),#hire:target~path.cls-1:nth-of-type(3),#karubi-kainomi:target~path.cls-1:nth-of-type(8),#ribeye:target~path.cls-1:nth-of-type(2),#bara:target~path.cls-1:nth-of-type(12),#shank:target~path.cls-1:nth-of-type(15),#shank:target~path.cls-1:nth-of-type(18),#flank:target~path.cls-1:nth-of-type(10),#sirloin:target~path.cls-1:nth-of-type(1),#outside-group:target~path.cls-1:nth-of-type(16),#brisket:target~path.cls-1:nth-of-type(19),#misuji:target~path.cls-1:nth-of-type(20),#inside-round:target~polygon.cls-1:nth-of-type(1){fill:#ff6a00}</style>
  </defs>
  <g id="neck" class="quiz-marker"/>
  <g id="harami-sagari" class="quiz-marker"/>
  <g id="sankaku-bara" class="quiz-marker"/>
  <g id="kata" class="quiz-marker"/>
  <g id="rump-group" class="quiz-marker"/>
  <g id="hire" class="quiz-marker"/>
  <g id="karubi-kainomi" class="quiz-marker"/>
  <g id="ribeye" class="quiz-marker"/>
  <g id="bara" class="quiz-marker"/>
  <g id="shank" class="quiz-marker"/>
  <g id="flank" class="quiz-marker"/>
  <g id="sirloin" class="quiz-marker"/>
  <g id="outside-group" class="quiz-marker"/>
  <g id="brisket" class="quiz-marker"/>
  <g id="misuji" class="quiz-marker"/>
  <g id="inside-round" class="quiz-marker"/>
  <path class="cls-1" d="M278.73,88.62v-47.11c-9.79-.99-13.95,1.99-18.66,5.41-3.26,2.36-6.95,5.03-12.84,6.5-4.46,1.12-12.77,1.46-22.76,1.27v27.28c5.3-.69,11.02-1.04,16.65-1.04,15.48,0,31.73,2.67,37.61,7.69Z"/>
  <path class="cls-1" d="M222.17,82.3v-27.66c-21.18-.56-48.9-3.35-64.13-6.27v43.3h43.33c1.26-4.53,9.87-7.7,20.79-9.37Z"/>
  <path class="cls-1" d="M203.51,92.81c0,4.53,15.45,9.59,37.61,9.59s37.61-5.05,37.61-9.59-15.45-9.59-37.61-9.59-37.61,5.05-37.61,9.59Z"/>
  <path class="cls-1" d="M106.48,45.75c.3,5.92,1.22,33.36-6.61,45.92h55.87v-43.77c-.54-.11-1.06-.23-1.55-.34-15.78-3.63-36.37-3.03-47.71-1.81Z"/>
  <path class="cls-1" d="M104.19,46.02c-2.29.3-4.05.62-5.08.91-4.87,1.41-9.83.24-12.33-.56.07,6.06-.27,27.27-7.65,45.29h17.96c8.2-10.91,7.38-39.42,7.1-45.65Z"/>
  <path class="cls-1" d="M166.43,138.19c4.55,0,8.39-8.52,8.39-18.61s-3.84-18.61-8.39-18.61-8.39,8.52-8.39,18.61,3.84,18.61,8.39,18.61Z"/>
  <polygon class="cls-1" points="299.01 85.66 281.03 90.37 281.03 119.24 299.01 119.24 299.01 85.66"/>
  <path class="cls-1" d="M326.87,55.34s0,0,0,0c-.52-3.31-3.84-7.71-9.17-9.71-2.5-.94-4.79-.97-8.58-1.02-5.08-.06-12.76-.16-26.79-2.6-.44-.08-.86-.13-1.28-.2v46.19l46.82-12.29c.5-1.33,1.09-2.55,1.77-3.67l-2.76-16.7s0,0,0,0Z"/>
  <polygon class="cls-1" points="152.94 119.1 155.74 119.1 155.74 93.96 128.81 93.96 152.94 119.1"/>
  <path class="cls-1" d="M166.43,98.67c5.94,0,10.59,9.01,10.68,20.57h101.62v-22.23c-5.88,5.02-22.13,7.69-37.61,7.69-18.36,0-37.81-3.76-39.74-10.74h-43.33v12.53c1.94-4.79,4.95-7.83,8.39-7.83Z"/>
  <path class="cls-1" d="M51.55,78.43c-10.41,0-16.42,2.05-16.72,3.15.3,1.06,6.32,3.12,16.72,3.12s16.35-2.03,16.72-3.13c-.37-1.11-6.37-3.14-16.72-3.14Z"/>
  <path class="cls-1" d="M299.01,121.54h-57.81v28.57c2.19-.93,4.25-1.88,6.1-2.85,17.01-8.83,26.43-8.84,32.51-.06.12.17.18.36.2.56.23,2.84.89,5.5,1.8,8.01h17.19v-34.24Z"/>
  <path class="cls-1" d="M314.43,181.8h-21.37c.07,1.3.1,2.72.13,4.36.03,1.45.06,3.09.13,4.96.4,10.87-4.45,19.9-9.11,24.73-.13.14-.3.24-.48.3-3.34,1.04-6.93,5.4-8.06,8.65-.04.12-.03.13,0,.18,1.08,1.3,8.26,1.65,14.51.71,2.3-.35,2.33-1.13,2.42-3.23.08-1.76.18-4.18,2.24-6.43,3.8-4.15,8.24-18.27,10.01-28.85.09-.51.51-.91,1.03-.96.04,0,.07,0,.11,0,.48,0,.91.3,1.08.75,2.6,7.06-1.22,32.37-1.39,33.44-.04.3-.21.57-.45.75-5.09,3.82-9.35,8.27-9.13,9.54.19,1.07,2.48,2.15,12.3,1.22,3.83-.36,3.81-.58,3.59-3.29-.04-.5-.08-1.05-.11-1.66-.07-1.61.65-3.27,1.57-5.36,1.77-4.03,4.18-9.56,2.42-18.49-1.37-6.94-1.75-14.58-1.44-21.32Z"/>
  <path class="cls-1" d="M166.43,140.49c-3.44,0-6.45-3.03-8.39-7.83v16.3c2.31-.83,4.28.16,8.55,2.3,2.82,1.41,6.68,3.35,12.5,5.76,15.32,6.35,41.77,1.2,59.8-5.96v-29.51h-61.83c-.49,10.77-4.99,18.94-10.64,18.94Z"/>
  <path class="cls-1" d="M364.38,169.88c-3.75-9.73-9.81-10.91-10.06-10.95-.2-.04-.4-.12-.55-.26-.45-.38-11.05-9.56-13.59-25.78-1.45-9.29-2.19-25.89-2.14-33.81.18-30.31-5.02-37.35-8.25-40.25l2.16,13.06c2.3,4.05,3.18,15.39,3.52,24.3l.16,4.42c.28,7.91.63,17.74,1.22,25.51,2.02,26.58,15.17,34.25,15.31,34.32.31.18.53.49.58.85.81,5.84,3.17,10.26,7.03,13.16,3.26,2.45,7.09,3.42,10.2,3.77-1.91-1.54-3.94-4.11-5.58-8.35Z"/>
  <path class="cls-1" d="M152.68,182.64h-14.82c.02,1.37.05,2.58.12,3.51.2,2.64.86,3.36,1.63,4.18.91.99,1.95,2.11,2,5.55.22,13.82-4.08,20.52-7.33,24.37-.06.07-.12.13-.2.18-3.62,2.67-4.95,4.84-6.09,7.15.88.47,3.89,1.04,7.96.73,3.55-.26,5.6-1.07,6.07-1.74,3.28-4.78,5.13-6.01,6.92-7.2.7-.46,1.35-.9,2.09-1.56l.48-.43c2.35-2.09,3.24-2.87,2.08-6.35-.1-.31-.07-.65.09-.94.16-.28.44-.49.76-.55.68-.14,1.54-.43,1.76-1.01.17-.46.18-1.61-1.72-4.2-1.7-2.32-2.3-13.76-1.81-21.7Z"/>
  <path class="cls-1" d="M287.9,167.61c.64,1.06,1.26,2.09,1.85,3.11,1.97,3.41,2.76,5.88,3.12,8.79h21.7c.43-5.99,1.42-11.06,2.73-13.98l.1-.21c1.65-3.66,2.46-5.46,1.76-7.23h-36.41c1.5,3.44,3.39,6.58,5.16,9.53Z"/>
  <path class="cls-1" d="M301.31,155.78h16.16c-.41-.41-.89-.85-1.45-1.33-5.98-5.15-2.63-23.71-1.2-28.23.55-1.73,1.7-3.64,3.03-5.84,2.73-4.53,6.14-10.17,6.53-17.72l.14-2.79c.38-7.59.77-15.35,2.51-21.57l-25.71,6.75v70.73Z"/>
  <path class="cls-1" d="M84.45,44.77s.01-.06.01-.09c0-.05,0-.1,0-.15,0-.04.03-.08.04-.12.02-.05.03-.1.05-.15.04-.08.08-.15.14-.22.03-.04.06-.08.09-.12.07-.07.15-.13.24-.18.03-.02.06-.05.09-.06.12-.06.25-.09.39-.1.04,0,4.29-.38,5.28-3.63.6-1.99,1.35-3.07,2.07-4.11.71-1.03,1.45-2.09,2.18-4.23-13.53-.46-17.14,6.64-17.29,6.95-.19.4-.6.65-1.04.65-.14,0-3.57-.04-5.98-3.3-.2-.27-.27-.62-.2-.94s.29-.61.59-.76c1.85-.96,2.56-2.2,2.17-3.79-.56-2.31-3.34-4.74-6.06-5.58.08.15.16.31.23.47,1.04,2.07,2.21,4.41,1.16,6.34-.71,1.31-2.26,2.08-4.75,2.37-7.19.83-8.18-2.62-9.32-6.61-.03-.12-.07-.24-.1-.37-.81,1.42-1.1,2.79-.88,4.08.38,2.12,2.16,3.82,3.71,4.71.33.19.54.52.58.89.03.37-.12.74-.4.98-1.33,1.13-2.11,3.41-2.12,3.44-.12.37-.43.65-.8.75-.38.1-.78,0-1.06-.26-.04-.03-3.22-2.89-6.86-3.53.93,4.09,3.7,5.53,3.83,5.59.38.19.62.57.64,1s-.2.82-.57,1.03c-.06.04-6.02,3.55-6.36,8.44-.43,6.2-7.56,10.84-14,12.53-4.38,1.15-5.96,2.58-6.5,3.57-.35.63-.4,1.3-.16,2.06.48,1.51.46,2.93.45,4.43-.01,1.7-.03,3.45.63,5.67,1.09,3.65,6.7,7.03,10.35,6.21,4.45-.99,5.7-.7,10.1,1.22,1.65.72,3.19.6,4.97.45,2.31-.19,4.94-.4,8.18,1.27,3.99,2.05,8.91,1.4,14.61.65,1.24-.16,2.52-.33,3.82-.47,8.9-20.85,7.86-46.72,7.84-46.98ZM53.68,55.13c1.67-1.52,5.98-3.49,10.39-.06.5.39.59,1.11.2,1.61-.23.29-.57.44-.91.44-.25,0-.5-.08-.71-.24-3.96-3.08-7.3-.18-7.44-.05-.47.42-1.2.38-1.62-.08-.42-.47-.39-1.19.08-1.62ZM51.55,87c-7.07,0-19.02-1.15-19.02-5.44s11.96-5.44,19.02-5.44,19.02,1.15,19.02,5.44-11.96,5.44-19.02,5.44Z"/>
  <path class="cls-1" d="M132.92,157.8c.32-.03.64.09.87.31,3.82,3.64,3.95,14.32,4.03,22.22h15.04c.17-1.68.4-3.1.69-4.07,1.59-5.32,1.28-16.09.32-23.85-.05-.39.1-.77.41-1.03.53-.44,1.01-.81,1.46-1.14v-2.16h-42.82c8.02,6.15,16.62,9.93,20,9.71Z"/>
  <path class="cls-1" d="M98.68,131.72c2.51,5.25,6.73,10.05,11.41,14.07h45.66v-24.39h-61.6c1.44,3.49,2.94,6.98,4.53,10.32Z"/>
  <path class="cls-1" d="M125.62,93.96h-45.16c4.37,4.65,7.9,13.28,11.89,23.06.28.69.57,1.38.85,2.08h56.56l-24.13-25.13Z"/>
  <path d="M375.91,178.25c-.23.01-5.72.33-9.39-9.19-3.78-9.79-9.92-11.92-11.47-12.32-1.46-1.35-10.39-10.06-12.61-24.2-1.44-9.17-2.16-25.59-2.11-33.44.2-34.44-6.69-40.09-10-42.81-.76-.63-1.13-.94-1.19-1.31h0s0-.02,0-.02c-.61-3.85-4.19-9.08-10.64-11.5-2.88-1.08-5.46-1.11-9.36-1.16-5.01-.06-12.57-.16-26.43-2.57-13.41-2.34-18.55,1.38-23.99,5.32-3.24,2.34-6.59,4.77-12.05,6.14-4.51,1.13-13.04,1.45-23.28,1.21-.02,0-.04-.01-.07-.01-.02,0-.04.01-.06.01-22.97-.54-54.47-3.85-68.56-7.08-19.85-4.56-49.17-2.63-56.23-.59-3.21.92-6.57.55-8.98,0,1.43-.76,2.86-2.03,3.49-4.11.5-1.64,1.08-2.49,1.76-3.47.92-1.32,1.95-2.82,2.93-6.3.09-.33.03-.69-.17-.97s-.51-.46-.86-.49c-13.82-.96-19.13,5.25-20.56,7.45-.64-.13-1.69-.47-2.68-1.36,1.88-1.43,2.65-3.41,2.12-5.6-.96-3.93-5.9-7.64-10.17-7.64-.37,0-.71.18-.93.47-.22.3-.28.68-.17,1.03.27.84.72,1.74,1.15,2.61.78,1.57,1.67,3.34,1.2,4.22-.31.58-1.38,1-2.99,1.18-5.26.6-5.72-1.02-6.84-4.96-.23-.81-.49-1.72-.82-2.67-.14-.39-.47-.68-.88-.75-.41-.07-.82.07-1.09.39-2.22,2.62-3.12,5.24-2.67,7.78.47,2.66,2.3,4.5,3.64,5.51-.49.63-.88,1.31-1.17,1.9-1.71-1.26-4.99-3.25-8.54-3.25-.33,0-.64.14-.85.38-.22.24-.32.56-.29.89.43,4.12,2.39,6.52,3.81,7.75-2.1,1.55-5.75,4.87-6.06,9.3-.34,4.84-6.44,8.93-12.29,10.47-4.15,1.09-6.82,2.67-7.93,4.68-.65,1.18-.77,2.51-.34,3.86.37,1.16.36,2.35.34,3.72-.02,1.78-.03,3.8.73,6.35,1.46,4.88,8.17,8.88,13.05,7.8,3.88-.86,4.62-.69,8.68,1.09,2.18.95,4.16.79,6.08.64,2.21-.18,4.29-.34,6.95,1.02,4.63,2.38,10.13,1.65,15.96.89,1.31-.17,2.64-.35,4.01-.5,4.82,3.53,8.85,13.42,13.12,23.89.38.93.76,1.86,1.15,2.8,0,0,0,.01,0,.02,1.65,4.03,3.37,8.11,5.23,12.01,2.63,5.49,7.15,10.64,12.2,14.96.06.08.14.14.22.19,8.59,7.28,18.63,12.16,23.49,12.24,2.85,3.39,2.94,13.62,3.01,20.46,0,.32,0,.61,0,.91,0,0,0,0,0,0,0,0,0,0,0,0,.02,1.91.05,3.58.14,4.83.26,3.44,1.35,4.62,2.23,5.57.76.82,1.35,1.46,1.39,4.03.2,12.92-3.71,19.17-6.71,22.75-4.12,3.07-5.59,5.65-6.84,8.24-.37.77-.3,1.86,1.01,2.62,2.99,1.73,14.75,1.85,17.15-1.65,3.02-4.41,4.69-5.52,6.3-6.58.73-.49,1.49-.99,2.35-1.76l.47-.42c2.24-1.99,4.05-3.6,3.07-7.65,1.13-.45,1.89-1.15,2.25-2.09.82-2.15-.75-4.67-2.01-6.39-1.13-1.54-1.99-13.52-1.34-21.31,0-.06.04-.12.04-.18,0-.03-.01-.05-.02-.08.16-1.79.4-3.35.74-4.49,1.88-6.26,1.21-17.83.48-24.16.47-.39.87-.7,1.24-.96.08-.05.17-.1.24-.16,1.96-1.28,3.08-.72,7.86,1.67,2.85,1.43,6.76,3.38,12.65,5.83,18.58,7.69,52.67-.77,70.14-9.83,15.77-8.18,24.05-8.49,29.39-1.04.3,3.27,1.11,6.28,2.2,9.09,0,0,0,.02,0,.03,1.63,4.19,3.88,7.94,5.96,11.4.63,1.05,1.24,2.07,1.82,3.07,2.96,5.13,3.01,7.83,3.14,14.34.03,1.47.06,3.11.13,5,.37,10-4.19,18.5-8.28,22.85-4.08,1.44-7.95,6.25-9.26,9.99-.3.87-.16,1.72.41,2.4,2.42,2.92,13.08,2.05,16.62,1.51,4.17-.63,4.28-3.28,4.38-5.41.07-1.64.14-3.34,1.64-4.97,3.35-3.65,6.92-13.62,9.15-23.01.06,8.99-1.83,22.38-2.22,25.03-2.85,2.17-10.22,8.16-9.64,11.49.48,2.69,3.9,3.48,8.37,3.48,1.99,0,4.18-.15,6.42-.36,5.51-.52,5.96-2.15,5.66-5.77-.04-.47-.08-.99-.11-1.57-.05-1.08.58-2.52,1.38-4.34,1.78-4.07,4.47-10.22,2.57-19.85-1.39-7.05-1.73-15.08-1.32-21.99,0-.01,0-.03,0-.04,0,0,0-.01,0-.02.36-6.09,1.3-11.29,2.59-14.17l.1-.21c1.94-4.29,3.05-6.8,1.44-9.69-.05-.14-.12-.26-.21-.37-.67-1.06-1.7-2.19-3.21-3.49-4.43-3.81-2.34-20.01-.5-25.79.47-1.47,1.55-3.27,2.8-5.35,2.71-4.5,6.43-10.66,6.86-18.79l.14-2.79c.46-9.29.94-18.87,3.88-25.1.87,2.8,1.99,8.78,2.46,21.4l.16,4.42c.28,7.93.63,17.79,1.23,25.6,1.92,25.27,13.38,34.15,15.98,35.85.97,6.21,3.61,10.97,7.86,14.16,7.55,5.66,17.38,4.28,17.79,4.22.61-.09,1.04-.65.97-1.26-.07-.62-.63-1.06-1.24-1.02ZM76.6,91.75c-1.3.14-2.57.31-3.82.47-5.7.75-10.62,1.4-14.61-.65-3.24-1.67-5.87-1.46-8.18-1.27-1.78.15-3.32.27-4.97-.45-4.4-1.92-5.66-2.21-10.1-1.22-3.65.81-9.26-2.56-10.35-6.21-.66-2.22-.65-3.97-.63-5.67.01-1.5.03-2.92-.45-4.43-.24-.75-.19-1.43.16-2.06.55-.99,2.12-2.42,6.5-3.57,6.44-1.69,13.57-6.33,14-12.53.34-4.89,6.3-8.4,6.36-8.44.37-.21.58-.61.57-1.03s-.26-.81-.64-1c-.13-.07-2.9-1.5-3.83-5.59,3.64.63,6.83,3.49,6.86,3.53.29.26.69.36,1.06.26.38-.1.68-.38.8-.75,0-.02.79-2.31,2.12-3.44.29-.24.44-.61.4-.98-.03-.37-.25-.71-.58-.89-1.54-.88-3.33-2.58-3.71-4.71-.23-1.29.07-2.66.88-4.08.04.12.07.24.1.37,1.14,3.99,2.13,7.44,9.32,6.61,2.49-.29,4.04-1.06,4.75-2.37,1.04-1.93-.13-4.27-1.16-6.34-.08-.16-.16-.32-.23-.47,2.71.84,5.49,3.26,6.06,5.58.39,1.59-.32,2.83-2.17,3.79-.3.15-.52.43-.59.76s0,.67.2.94c2.42,3.27,5.84,3.3,5.98,3.3.44,0,.84-.26,1.04-.65.15-.31,3.76-7.41,17.29-6.95-.73,2.15-1.47,3.21-2.18,4.23-.72,1.04-1.47,2.12-2.07,4.11-.99,3.25-5.24,3.62-5.28,3.63-.14.01-.27.05-.39.1-.04.02-.06.04-.09.06-.09.05-.17.11-.24.18-.04.04-.06.08-.09.12-.05.07-.1.14-.14.22-.02.05-.04.1-.05.15-.01.04-.03.08-.04.12,0,.05,0,.1,0,.15,0,.03-.02.06-.01.09.01.26,1.06,26.13-7.84,46.98ZM86.78,46.37c2.5.8,7.47,1.97,12.33.56,1.02-.3,2.78-.61,5.08-.91.29,6.22,1.11,34.74-7.1,45.65h-17.96c7.38-18.02,7.72-39.23,7.65-45.29ZM92.35,117.02c-3.99-9.77-7.52-18.4-11.89-23.06h45.16l24.13,25.13h-56.56c-.28-.69-.57-1.39-.85-2.08ZM156.2,208.55c-.22.58-1.08.87-1.76,1.01-.32.07-.6.27-.76.55-.16.28-.2.62-.09.94,1.16,3.47.28,4.26-2.08,6.35l-.48.43c-.74.66-1.39,1.1-2.09,1.56-1.79,1.19-3.65,2.42-6.92,7.2-.46.68-2.52,1.48-6.07,1.74-4.08.3-7.08-.26-7.96-.73,1.14-2.31,2.47-4.48,6.09-7.15.07-.05.14-.12.2-.18,3.25-3.84,7.55-10.55,7.33-24.37-.05-3.44-1.09-4.56-2-5.55-.77-.83-1.43-1.54-1.63-4.18-.07-.93-.1-2.14-.12-3.51h14.82c-.5,7.94.1,19.38,1.81,21.7,1.9,2.59,1.89,3.75,1.72,4.2ZM155.74,150.25c-.45.33-.93.7-1.46,1.14-.3.25-.45.64-.41,1.03.96,7.76,1.27,18.53-.32,23.85-.29.98-.52,2.39-.69,4.07h-15.04c-.08-7.9-.21-18.59-4.03-22.22-.24-.22-.55-.34-.87-.31-3.38.22-11.98-3.55-20-9.71h42.82v2.16ZM155.74,145.79h-45.66c-4.68-4.02-8.9-8.82-11.41-14.07-1.6-3.34-3.09-6.84-4.53-10.32h61.6v24.39ZM155.74,119.1h-2.8l-24.13-25.13h26.94v25.13ZM155.74,91.66h-55.87c7.83-12.55,6.91-40,6.61-45.92,11.34-1.22,31.92-1.82,47.71,1.81.5.11,1.02.23,1.55.34v43.77ZM281.03,90.37l17.97-4.72v33.59h-17.97v-28.87ZM224.47,54.69c9.99.19,18.3-.15,22.76-1.27,5.89-1.47,9.58-4.15,12.84-6.5,4.71-3.41,8.87-6.39,18.66-5.41v47.11c-5.88-5.02-22.13-7.69-37.61-7.69-5.63,0-11.35.35-16.65,1.04v-27.28ZM241.12,83.23c22.17,0,37.61,5.05,37.61,9.59s-15.45,9.59-37.61,9.59-37.61-5.05-37.61-9.59,15.45-9.59,37.61-9.59ZM158.05,48.36c15.22,2.93,42.94,5.71,64.13,6.27v27.66c-10.92,1.67-19.54,4.84-20.79,9.37h-43.33v-43.3ZM158.05,93.96h43.33c1.94,6.98,21.38,10.74,39.74,10.74,15.48,0,31.73-2.67,37.61-7.69v22.23h-101.62c-.09-11.56-4.75-20.57-10.68-20.57-3.44,0-6.45,3.03-8.39,7.83v-12.53ZM166.43,100.97c4.55,0,8.39,8.52,8.39,18.61s-3.84,18.61-8.39,18.61-8.39-8.52-8.39-18.61,3.84-18.61,8.39-18.61ZM238.9,151.06c-18.03,7.16-44.48,12.3-59.8,5.96-5.82-2.41-9.68-4.35-12.5-5.76-4.27-2.14-6.24-3.12-8.55-2.3v-16.3c1.94,4.79,4.95,7.83,8.39,7.83,5.65,0,10.15-8.18,10.64-18.94h61.83v29.51ZM280.02,147.77c-.02-.2-.09-.4-.2-.56-6.08-8.79-15.5-8.77-32.51.06-1.85.96-3.91,1.92-6.1,2.85v-28.57h57.81v34.24h-17.19c-.91-2.51-1.58-5.16-1.8-8.01ZM313.44,221.61c-.92,2.09-1.64,3.75-1.57,5.36.03.61.07,1.16.11,1.66.22,2.71.24,2.93-3.59,3.29-9.83.92-12.12-.16-12.3-1.22-.22-1.26,4.04-5.72,9.13-9.54.24-.18.4-.45.45-.75.16-1.07,3.99-26.38,1.39-33.44-.17-.46-.6-.75-1.08-.75-.04,0-.07,0-.11,0-.52.05-.94.44-1.03.96-1.76,10.58-6.21,24.7-10.01,28.85-2.06,2.25-2.16,4.66-2.24,6.43-.09,2.1-.12,2.89-2.42,3.23-6.24.94-13.43.59-14.51-.71-.04-.05-.05-.06,0-.18,1.13-3.25,4.73-7.6,8.06-8.65.18-.06.35-.16.48-.3,4.67-4.83,9.51-13.86,9.11-24.73-.07-1.88-.1-3.51-.13-4.96-.03-1.64-.06-3.06-.13-4.36h21.37c-.31,6.75.07,14.38,1.44,21.32,1.76,8.93-.66,14.45-2.42,18.49ZM319.15,158.08c.7,1.77-.11,3.57-1.76,7.23l-.1.21c-1.32,2.92-2.3,7.99-2.73,13.98h-21.7c-.35-2.9-1.15-5.38-3.12-8.79-.59-1.02-1.21-2.05-1.85-3.11-1.77-2.94-3.66-6.09-5.16-9.53h36.41ZM324.52,99.87l-.14,2.79c-.4,7.56-3.8,13.19-6.53,17.72-1.33,2.2-2.48,4.11-3.03,5.84-1.43,4.52-4.78,23.08,1.2,28.23.56.48,1.04.92,1.45,1.33h-16.16v-70.73l25.71-6.75c-1.73,6.22-2.13,13.98-2.51,21.57ZM327.85,75.71l-46.82,12.29v-46.19c.42.06.84.12,1.28.2,14.04,2.44,21.71,2.54,26.79,2.6,3.79.05,6.08.08,8.58,1.02,5.34,2,8.66,6.4,9.17,9.71,0,0,0,0,0,0,0,0,0,0,0,0l2.76,16.7c-.68,1.11-1.27,2.34-1.77,3.67ZM359.75,174.46c-3.86-2.9-6.22-7.32-7.03-13.16-.05-.36-.27-.67-.58-.85-.13-.07-13.28-7.75-15.31-34.32-.59-7.76-.94-17.6-1.22-25.51l-.16-4.42c-.34-8.91-1.22-20.26-3.52-24.3l-2.16-13.06c3.23,2.9,8.43,9.93,8.25,40.25-.05,7.92.69,24.53,2.14,33.81,2.54,16.21,13.14,25.4,13.59,25.78.16.13.35.22.55.26.26.04,6.31,1.22,10.06,10.95,1.64,4.24,3.67,6.8,5.58,8.35-3.11-.35-6.94-1.32-10.2-3.77Z"/>
  <path d="M51.55,76.13c-7.07,0-19.02,1.15-19.02,5.44s11.96,5.44,19.02,5.44,19.02-1.15,19.02-5.44-11.96-5.44-19.02-5.44ZM51.55,84.7c-10.41,0-16.42-2.05-16.72-3.12.3-1.1,6.32-3.15,16.72-3.15s16.35,2.03,16.72,3.14c-.37,1.11-6.37,3.13-16.72,3.13Z"/>
  <path d="M55.23,56.83c.14-.12,3.47-3.03,7.44.05.21.16.46.24.71.24.34,0,.68-.15.91-.44.39-.5.3-1.22-.2-1.61-4.41-3.43-8.73-1.46-10.39.06-.47.43-.5,1.15-.08,1.62.42.47,1.15.51,1.62.08Z"/>
</svg>
